<svg width="271" height="126" viewBox="0 0 271 126" fill="none" xmlns="http://www.w3.org/2000/svg">
<path d="M39.3298 37.2608C47.3614 -3.17126 52.6915 -0.177869 80.5358 0.189531L76.3542 15.2901C54.4906 14.8152 48.2805 16.9774 42.2858 41.6251C34.3226 81.3492 28.2816 79.3146 0.595416 78.9493L0.643268 78.7745L0.599322 78.7833C-0.819277 43.2735 -2.23107 35.7762 28.0593 34.1231C31.5118 34.9994 33.4281 35.5503 36.2487 38.3184C16.0049 39.7778 11.5797 44.2803 11.5232 64.1016C29.5788 64.9856 33.322 65.9973 39.3259 37.2608C39.327 37.2633 39.3277 37.2662 39.3288 37.2686C39.3289 37.2661 39.3298 37.2633 39.3298 37.2608Z" fill="#0C5D7A"/>
<path d="M46.1688 64.0615C54.2004 23.6291 59.8324 25.1886 87.6768 25.556L83.4956 40.6565C59.5165 40.1357 54.3663 42.7866 47.679 74.794C46.1096 71.154 46.0977 68.6245 46.1688 64.0615Z" fill="#4B2A70"/>
<path d="M77.1339 56.9029C69.1023 97.3352 63.4703 95.7758 35.6259 95.4084L39.8071 80.3078C63.7862 80.8287 68.9365 78.1777 75.6237 46.1703C77.1931 49.8103 77.2051 52.3399 77.1339 56.9029Z" fill="#AE2244"/>
<path d="M84.1046 79.3663C76.073 119.799 70.441 118.239 42.5966 117.872L46.7778 102.771C70.7569 103.292 75.9072 100.641 82.5944 68.6337C84.1638 72.2737 84.1758 74.8033 84.1046 79.3663Z" fill="#ED5B2A"/>
<path d="M123.776 10.4561H130.941C133.033 10.4561 134.85 10.6812 136.393 11.1313C137.935 11.5814 139.21 12.2275 140.219 13.0694C141.236 13.903 141.99 14.92 142.482 16.1204C142.982 17.3125 143.232 18.6546 143.232 20.1468C143.232 21.5639 142.986 22.8768 142.495 24.0856C142.003 25.286 141.252 26.328 140.244 27.2116C139.235 28.0869 137.96 28.7746 136.418 29.2748C134.875 29.7666 133.058 30.0125 130.966 30.0125L123.776 30V10.4561ZM131.916 26.5739C133.1 26.5739 134.138 26.4238 135.03 26.1237C135.922 25.8153 136.663 25.3818 137.255 24.8233C137.856 24.2648 138.306 23.5896 138.606 22.7976C138.906 22.0057 139.056 21.1221 139.056 20.1468C139.056 19.1881 138.906 18.3253 138.606 17.5584C138.306 16.7832 137.856 16.1288 137.255 15.5953C136.663 15.0534 135.922 14.6366 135.03 14.3449C134.138 14.0531 133.1 13.9072 131.916 13.9072H127.74V26.5739H131.916ZM146.046 22.5726C146.046 21.5722 146.25 20.6178 146.658 19.7091C147.067 18.7922 147.655 17.9836 148.422 17.2833C149.188 16.5831 150.126 16.0246 151.235 15.6078C152.352 15.191 153.619 14.9826 155.036 14.9826C156.445 14.9826 157.712 15.1951 158.837 15.6203C159.971 16.0371 160.93 16.6123 161.713 17.3458C162.505 18.0794 163.11 18.9422 163.526 19.9342C163.952 20.9262 164.164 21.989 164.164 23.1227C164.164 23.2645 164.16 23.4187 164.152 23.5854C164.152 23.7438 164.143 23.8897 164.127 24.023H150.172C150.33 24.4648 150.585 24.8691 150.935 25.2359C151.293 25.6027 151.739 25.9195 152.273 26.1862C152.806 26.453 153.423 26.6614 154.123 26.8115C154.824 26.9532 155.599 27.024 156.449 27.024C157.299 27.024 158.146 26.9365 158.987 26.7614C159.829 26.578 160.634 26.3488 161.401 26.0737L162.651 28.8996C162.168 29.1247 161.676 29.3248 161.176 29.4998C160.684 29.6666 160.167 29.8083 159.625 29.925C159.092 30.0333 158.529 30.1167 157.937 30.1751C157.354 30.2334 156.737 30.2626 156.087 30.2626C154.428 30.2626 152.973 30.0625 151.723 29.6624C150.472 29.2623 149.426 28.7162 148.584 28.0244C147.742 27.3325 147.109 26.5197 146.683 25.586C146.258 24.6524 146.046 23.6479 146.046 22.5726ZM160.238 21.1346C160.105 20.7261 159.896 20.3468 159.613 19.9967C159.338 19.6383 158.992 19.3298 158.575 19.0714C158.158 18.8047 157.675 18.5963 157.124 18.4462C156.574 18.2962 155.97 18.2211 155.311 18.2211C154.611 18.2211 153.973 18.3003 153.398 18.4587C152.823 18.6171 152.319 18.8297 151.885 19.0964C151.452 19.3632 151.089 19.6716 150.797 20.0217C150.514 20.3718 150.305 20.7428 150.172 21.1346H160.238ZM168.741 25.4735C169.741 26.0737 170.841 26.5155 172.042 26.7989C173.242 27.0824 174.472 27.2241 175.73 27.2241C176.581 27.2241 177.289 27.1657 177.856 27.049C178.423 26.9323 178.877 26.7823 179.219 26.5989C179.561 26.4155 179.803 26.2071 179.944 25.9737C180.086 25.7403 180.157 25.5027 180.157 25.2609C180.157 24.9108 180.003 24.6107 179.694 24.3606C179.394 24.1106 178.894 23.9855 178.194 23.9855C177.869 23.9855 177.519 24.0064 177.143 24.048C176.768 24.0897 176.372 24.1356 175.956 24.1856C175.547 24.2273 175.118 24.2689 174.668 24.3106C174.226 24.3523 173.776 24.3732 173.317 24.3732C172.317 24.3732 171.462 24.2648 170.754 24.048C170.054 23.8313 169.483 23.5354 169.041 23.1603C168.599 22.7851 168.278 22.3433 168.078 21.8348C167.878 21.318 167.778 20.7636 167.778 20.1718C167.778 19.4215 167.953 18.7296 168.303 18.0961C168.653 17.4625 169.153 16.9165 169.804 16.458C170.454 15.9912 171.237 15.6286 172.154 15.3702C173.08 15.1118 174.109 14.9826 175.243 14.9826C175.835 14.9826 176.452 15.0201 177.093 15.0951C177.744 15.1618 178.381 15.2535 179.007 15.3702C179.632 15.4869 180.232 15.6244 180.807 15.7828C181.382 15.9329 181.891 16.0954 182.333 16.2705L181.17 19.1464C180.228 18.7963 179.286 18.5212 178.344 18.3212C177.41 18.1128 176.447 18.0086 175.455 18.0086C174.764 18.0086 174.176 18.0627 173.692 18.1711C173.217 18.2711 172.83 18.4087 172.529 18.5837C172.229 18.7505 172.008 18.9464 171.867 19.1714C171.733 19.3882 171.667 19.6174 171.667 19.8592C171.667 20.0342 171.7 20.1926 171.767 20.3343C171.842 20.476 171.958 20.6011 172.117 20.7094C172.284 20.8095 172.496 20.8887 172.755 20.947C173.021 20.997 173.346 21.022 173.73 21.022C174.08 21.022 174.451 21.0012 174.843 20.9595C175.234 20.9178 175.643 20.8762 176.068 20.8345C176.493 20.7845 176.931 20.7386 177.381 20.6969C177.84 20.6553 178.306 20.6344 178.781 20.6344C179.665 20.6344 180.436 20.7386 181.095 20.947C181.762 21.1554 182.312 21.4472 182.745 21.8223C183.179 22.1974 183.504 22.6392 183.721 23.1477C183.937 23.6562 184.046 24.2106 184.046 24.8108C184.046 25.586 183.866 26.3071 183.508 26.974C183.15 27.6409 182.616 28.2202 181.908 28.7121C181.199 29.1956 180.315 29.5749 179.257 29.85C178.206 30.125 176.989 30.2626 175.605 30.2626C174.755 30.2626 173.934 30.2084 173.142 30.1C172.35 30 171.596 29.8625 170.879 29.6874C170.162 29.504 169.487 29.2914 168.853 29.0497C168.228 28.8079 167.657 28.5495 167.14 28.2744L168.741 25.4735ZM189.335 13.232C188.968 13.232 188.635 13.182 188.335 13.0819C188.043 12.9736 187.793 12.8319 187.584 12.6568C187.376 12.4734 187.213 12.265 187.097 12.0316C186.988 11.7898 186.934 11.5356 186.934 11.2688C186.934 10.9938 186.988 10.7395 187.097 10.5061C187.213 10.2643 187.376 10.0559 187.584 9.88089C187.793 9.70583 188.043 9.56829 188.335 9.46825C188.635 9.35988 188.968 9.3057 189.335 9.3057C189.71 9.3057 190.044 9.35988 190.335 9.46825C190.635 9.56829 190.89 9.70583 191.098 9.88089C191.306 10.0559 191.465 10.2643 191.573 10.5061C191.69 10.7395 191.748 10.9938 191.748 11.2688C191.748 11.5356 191.69 11.7898 191.573 12.0316C191.465 12.265 191.306 12.4734 191.098 12.6568C190.89 12.8319 190.635 12.9736 190.335 13.0819C190.044 13.182 189.71 13.232 189.335 13.232ZM187.484 15.2452H191.186V30H187.484V15.2452ZM198.25 32.5008C198.717 32.6675 199.192 32.8051 199.676 32.9135C200.159 33.0302 200.626 33.1219 201.076 33.1885C201.535 33.2636 201.972 33.3136 202.389 33.3386C202.806 33.3719 203.177 33.3886 203.502 33.3886C204.486 33.3886 205.34 33.2677 206.065 33.026C206.799 32.7926 207.408 32.4758 207.891 32.0757C208.383 31.6756 208.75 31.2087 208.991 30.6752C209.233 30.15 209.354 29.5915 209.354 28.9997V28.362C209.037 28.5787 208.666 28.7871 208.241 28.9872C207.816 29.1872 207.349 29.3623 206.841 29.5123C206.332 29.6624 205.79 29.7833 205.215 29.875C204.648 29.9667 204.061 30.0125 203.452 30.0125C202.243 30.0125 201.126 29.8333 200.101 29.4748C199.076 29.108 198.188 28.5995 197.438 27.9493C196.687 27.2908 196.1 26.503 195.675 25.586C195.258 24.6691 195.049 23.6521 195.049 22.535C195.049 21.393 195.27 20.3593 195.712 19.434C196.154 18.5004 196.762 17.7043 197.538 17.0457C198.321 16.3872 199.247 15.8787 200.314 15.5202C201.381 15.1618 202.539 14.9826 203.79 14.9826C204.323 14.9826 204.853 15.0159 205.378 15.0826C205.903 15.1493 206.403 15.241 206.878 15.3577C207.362 15.4744 207.812 15.6161 208.229 15.7828C208.654 15.9412 209.029 16.1163 209.354 16.308V15.2452H213.055V28.3119C213.055 29.6541 212.851 30.8419 212.443 31.8756C212.034 32.9093 211.434 33.7762 210.642 34.4765C209.858 35.185 208.883 35.7185 207.716 36.077C206.549 36.4438 205.211 36.6272 203.702 36.6272C203.16 36.6272 202.598 36.6022 202.014 36.5522C201.431 36.5105 200.843 36.4438 200.251 36.3521C199.668 36.2687 199.088 36.1645 198.513 36.0395C197.946 35.9228 197.4 35.7852 196.875 35.6268L198.25 32.5008ZM198.938 22.4975C198.938 23.0894 199.055 23.6479 199.288 24.1731C199.53 24.6899 199.872 25.1442 200.314 25.536C200.755 25.9195 201.289 26.2238 201.914 26.4488C202.539 26.6656 203.244 26.7739 204.027 26.7739C204.536 26.7739 205.04 26.7281 205.54 26.6364C206.049 26.5364 206.532 26.3988 206.991 26.2238C207.458 26.0487 207.891 25.8361 208.291 25.586C208.7 25.336 209.054 25.0567 209.354 24.7483V19.8842C208.979 19.5841 208.583 19.3298 208.166 19.1214C207.749 18.913 207.324 18.7421 206.891 18.6088C206.457 18.4754 206.02 18.3795 205.578 18.3212C205.136 18.2545 204.707 18.2211 204.29 18.2211C203.44 18.2211 202.681 18.3337 202.014 18.5587C201.356 18.7838 200.797 19.0922 200.339 19.484C199.888 19.8675 199.542 20.3177 199.301 20.8345C199.059 21.3513 198.938 21.9057 198.938 22.4975ZM217.269 15.2452H220.97V16.4956C221.954 15.937 222.892 15.5452 223.784 15.3202C224.684 15.0951 225.564 14.9826 226.422 14.9826C227.548 14.9826 228.59 15.1493 229.548 15.4827C230.507 15.8078 231.336 16.2955 232.036 16.9457C232.737 17.5959 233.283 18.4087 233.675 19.384C234.075 20.351 234.275 21.4722 234.275 22.7476V30H230.586V23.3478C230.586 22.5392 230.469 21.8181 230.236 21.1846C230.011 20.5427 229.682 20.005 229.248 19.5716C228.823 19.1298 228.302 18.7963 227.685 18.5712C227.077 18.3378 226.393 18.2211 225.634 18.2211C225.234 18.2211 224.822 18.2628 224.396 18.3462C223.98 18.4295 223.567 18.5504 223.159 18.7088C222.758 18.8588 222.371 19.0506 221.996 19.284C221.621 19.5091 221.279 19.7675 220.97 20.0592V30H217.269V15.2452ZM124.689 56.1856C125.397 56.5857 126.114 56.9483 126.839 57.2734C127.573 57.5902 128.332 57.8611 129.115 58.0862C129.899 58.303 130.72 58.4697 131.578 58.5864C132.445 58.7031 133.367 58.7614 134.342 58.7614C135.517 58.7614 136.518 58.6864 137.343 58.5364C138.168 58.378 138.839 58.1654 139.356 57.8987C139.881 57.6236 140.26 57.2985 140.494 56.9233C140.736 56.5482 140.857 56.1397 140.857 55.6979C140.857 54.9894 140.561 54.4308 139.969 54.0224C139.377 53.6056 138.464 53.3972 137.23 53.3972C136.688 53.3972 136.117 53.4347 135.517 53.5097C134.917 53.5764 134.309 53.6514 133.692 53.7348C133.083 53.8181 132.479 53.8973 131.879 53.9724C131.287 54.0391 130.728 54.0724 130.203 54.0724C129.328 54.0724 128.486 53.9599 127.677 53.7348C126.877 53.5097 126.164 53.1721 125.539 52.722C124.922 52.2718 124.43 51.7091 124.064 51.0339C123.697 50.3587 123.513 49.5709 123.513 48.6706C123.513 48.1371 123.584 47.6078 123.726 47.0826C123.876 46.5574 124.109 46.0573 124.426 45.5821C124.751 45.0986 125.168 44.6526 125.677 44.2442C126.185 43.8274 126.798 43.4689 127.515 43.1688C128.24 42.8687 129.073 42.6353 130.015 42.4686C130.966 42.2935 132.045 42.206 133.254 42.206C134.129 42.206 135.009 42.256 135.892 42.356C136.776 42.4477 137.635 42.5811 138.468 42.7562C139.31 42.9312 140.119 43.1438 140.894 43.3939C141.669 43.6356 142.39 43.9066 143.057 44.2067L141.319 47.4077C140.769 47.166 140.177 46.9451 139.544 46.745C138.91 46.5366 138.247 46.3574 137.555 46.2073C136.864 46.0573 136.147 45.9406 135.405 45.8572C134.671 45.7655 133.921 45.7196 133.154 45.7196C132.062 45.7196 131.162 45.7988 130.453 45.9572C129.753 46.1156 129.194 46.3198 128.778 46.5699C128.361 46.8117 128.069 47.0868 127.902 47.3952C127.744 47.6953 127.665 47.9954 127.665 48.2955C127.665 48.879 127.927 49.3583 128.452 49.7335C128.978 50.1003 129.778 50.2836 130.853 50.2836C131.287 50.2836 131.783 50.2545 132.341 50.1961C132.908 50.1294 133.5 50.0586 134.117 49.9836C134.742 49.9085 135.376 49.8418 136.017 49.7835C136.668 49.7168 137.297 49.6835 137.906 49.6835C139.056 49.6835 140.073 49.8127 140.957 50.0711C141.849 50.3295 142.595 50.7005 143.195 51.1839C143.795 51.6591 144.249 52.2385 144.558 52.922C144.866 53.5972 145.02 54.3558 145.02 55.1978C145.02 56.3231 144.758 57.3276 144.233 58.2113C143.716 59.0865 142.974 59.8285 142.007 60.437C141.048 61.0372 139.89 61.4957 138.531 61.8124C137.172 62.1209 135.659 62.2751 133.992 62.2751C132.891 62.2751 131.816 62.2042 130.766 62.0625C129.715 61.9291 128.707 61.7374 127.74 61.4873C126.781 61.2289 125.864 60.9246 124.989 60.5745C124.122 60.2161 123.317 59.8243 122.576 59.3991L124.689 56.1856ZM148.922 47.2326H152.61V54.435C152.61 55.1186 152.685 55.7438 152.835 56.3106C152.986 56.8691 153.24 57.3485 153.598 57.7486C153.965 58.1487 154.448 58.4613 155.049 58.6864C155.657 58.9031 156.412 59.0115 157.312 59.0115C157.737 59.0115 158.166 58.9657 158.6 58.874C159.042 58.7823 159.463 58.6572 159.863 58.4988C160.263 58.3321 160.634 58.1362 160.976 57.9112C161.326 57.6861 161.626 57.4402 161.876 57.1734V47.2326H165.577V62H161.876V60.7371C160.967 61.2789 160.055 61.6666 159.138 61.9C158.221 62.1334 157.349 62.2501 156.524 62.2501C155.174 62.2501 154.015 62.0875 153.048 61.7624C152.089 61.4373 151.302 60.9663 150.685 60.3495C150.076 59.7243 149.63 58.9615 149.347 58.0612C149.063 57.1526 148.922 56.1189 148.922 54.9602V47.2326ZM170.379 47.2452H174.08V48.4956C175.005 47.9287 175.906 47.5369 176.781 47.3202C177.664 47.0951 178.527 46.9826 179.369 46.9826C180.545 46.9826 181.624 47.1701 182.608 47.5452C183.591 47.9204 184.433 48.4872 185.134 49.2458C185.675 48.829 186.209 48.4789 186.734 48.1955C187.259 47.9037 187.784 47.6703 188.31 47.4952C188.835 47.3118 189.368 47.1826 189.91 47.1076C190.452 47.0242 191.011 46.9826 191.586 46.9826C192.794 46.9826 193.891 47.1493 194.874 47.4827C195.858 47.8078 196.696 48.2955 197.388 48.9457C198.088 49.5959 198.626 50.4087 199.001 51.384C199.384 52.351 199.576 53.4722 199.576 54.7476V62H195.887V55.3478C195.887 54.5392 195.77 53.8181 195.537 53.1846C195.312 52.5427 194.991 52.005 194.574 51.5716C194.166 51.1298 193.674 50.7963 193.099 50.5712C192.532 50.3378 191.907 50.2211 191.223 50.2211C190.848 50.2211 190.464 50.2586 190.073 50.3337C189.681 50.4004 189.297 50.5087 188.922 50.6588C188.556 50.8088 188.21 51.0006 187.884 51.234C187.559 51.459 187.276 51.7258 187.034 52.0342V62H183.345V55.3478C183.345 54.5392 183.229 53.8181 182.995 53.1846C182.77 52.5427 182.449 52.005 182.033 51.5716C181.624 51.1298 181.128 50.7963 180.545 50.5712C179.969 50.3378 179.336 50.2211 178.644 50.2211C178.219 50.2211 177.789 50.267 177.356 50.3587C176.931 50.442 176.518 50.5629 176.118 50.7213C175.726 50.8797 175.355 51.0714 175.005 51.2965C174.663 51.5216 174.355 51.7758 174.08 52.0592V62H170.379V47.2452ZM204.34 47.2452H208.041V48.4956C208.966 47.9287 209.867 47.5369 210.742 47.3202C211.626 47.0951 212.488 46.9826 213.33 46.9826C214.506 46.9826 215.585 47.1701 216.569 47.5452C217.553 47.9204 218.395 48.4872 219.095 49.2458C219.637 48.829 220.17 48.4789 220.695 48.1955C221.22 47.9037 221.746 47.6703 222.271 47.4952C222.796 47.3118 223.329 47.1826 223.871 47.1076C224.413 47.0242 224.972 46.9826 225.547 46.9826C226.756 46.9826 227.852 47.1493 228.835 47.4827C229.819 47.8078 230.657 48.2955 231.349 48.9457C232.049 49.5959 232.587 50.4087 232.962 51.384C233.345 52.351 233.537 53.4722 233.537 54.7476V62H229.848V55.3478C229.848 54.5392 229.732 53.8181 229.498 53.1846C229.273 52.5427 228.952 52.005 228.535 51.5716C228.127 51.1298 227.635 50.7963 227.06 50.5712C226.493 50.3378 225.868 50.2211 225.184 50.2211C224.809 50.2211 224.426 50.2586 224.034 50.3337C223.642 50.4004 223.259 50.5087 222.883 50.6588C222.517 50.8088 222.171 51.0006 221.846 51.234C221.521 51.459 221.237 51.7258 220.995 52.0342V62H217.307V55.3478C217.307 54.5392 217.19 53.8181 216.957 53.1846C216.731 52.5427 216.411 52.005 215.994 51.5716C215.585 51.1298 215.089 50.7963 214.506 50.5712C213.931 50.3378 213.297 50.2211 212.605 50.2211C212.18 50.2211 211.751 50.267 211.317 50.3587C210.892 50.442 210.479 50.5629 210.079 50.7213C209.687 50.8797 209.317 51.0714 208.966 51.2965C208.625 51.5216 208.316 51.7758 208.041 52.0592V62H204.34V47.2452ZM237.501 54.5726C237.501 53.5722 237.705 52.6178 238.113 51.7091C238.522 50.7922 239.11 49.9836 239.877 49.2833C240.643 48.5831 241.581 48.0246 242.69 47.6078C243.807 47.191 245.074 46.9826 246.491 46.9826C247.9 46.9826 249.167 47.1951 250.292 47.6203C251.426 48.0371 252.385 48.6123 253.168 49.3458C253.96 50.0794 254.565 50.9422 254.982 51.9342C255.407 52.9262 255.619 53.989 255.619 55.1227C255.619 55.2645 255.615 55.4187 255.607 55.5854C255.607 55.7438 255.598 55.8897 255.582 56.023H241.627C241.786 56.4648 242.04 56.8691 242.39 57.2359C242.748 57.6027 243.194 57.9195 243.728 58.1862C244.261 58.453 244.878 58.6614 245.578 58.8115C246.279 58.9532 247.054 59.024 247.904 59.024C248.754 59.024 249.601 58.9365 250.443 58.7614C251.284 58.578 252.089 58.3488 252.856 58.0737L254.106 60.8996C253.623 61.1247 253.131 61.3248 252.631 61.4998C252.139 61.6666 251.622 61.8083 251.08 61.925C250.547 62.0333 249.984 62.1167 249.392 62.1751C248.809 62.2334 248.192 62.2626 247.542 62.2626C245.883 62.2626 244.428 62.0625 243.178 61.6624C241.927 61.2623 240.881 60.7162 240.039 60.0244C239.197 59.3325 238.564 58.5197 238.138 57.586C237.713 56.6524 237.501 55.6479 237.501 54.5726ZM251.693 53.1346C251.56 52.7261 251.351 52.3468 251.068 51.9967C250.793 51.6383 250.447 51.3298 250.03 51.0714C249.613 50.8047 249.13 50.5963 248.579 50.4462C248.029 50.2962 247.425 50.2211 246.766 50.2211C246.066 50.2211 245.428 50.3003 244.853 50.4587C244.278 50.6171 243.774 50.8297 243.34 51.0964C242.907 51.3632 242.544 51.6716 242.252 52.0217C241.969 52.3718 241.761 52.7428 241.627 53.1346H251.693ZM259.608 47.2452H263.309V49.3708C264.126 48.7623 264.989 48.2371 265.898 47.7953C266.806 47.3535 267.711 47.0159 268.611 46.7825L269.699 50.1711C268.273 50.3128 267.019 50.6338 265.935 51.1339C264.86 51.6258 263.984 52.3218 263.309 53.2221V62H259.608V47.2452ZM124.689 88.1856C125.397 88.5857 126.114 88.9483 126.839 89.2734C127.573 89.5902 128.332 89.8611 129.115 90.0862C129.899 90.303 130.72 90.4697 131.578 90.5864C132.445 90.7031 133.367 90.7614 134.342 90.7614C135.517 90.7614 136.518 90.6864 137.343 90.5364C138.168 90.378 138.839 90.1654 139.356 89.8987C139.881 89.6236 140.26 89.2985 140.494 88.9233C140.736 88.5482 140.857 88.1397 140.857 87.6979C140.857 86.9894 140.561 86.4308 139.969 86.0224C139.377 85.6056 138.464 85.3972 137.23 85.3972C136.688 85.3972 136.117 85.4347 135.517 85.5097C134.917 85.5764 134.309 85.6514 133.692 85.7348C133.083 85.8181 132.479 85.8973 131.879 85.9724C131.287 86.0391 130.728 86.0724 130.203 86.0724C129.328 86.0724 128.486 85.9599 127.677 85.7348C126.877 85.5097 126.164 85.1721 125.539 84.722C124.922 84.2718 124.43 83.7091 124.064 83.0339C123.697 82.3587 123.513 81.5709 123.513 80.6706C123.513 80.1371 123.584 79.6078 123.726 79.0826C123.876 78.5574 124.109 78.0573 124.426 77.5821C124.751 77.0986 125.168 76.6526 125.677 76.2442C126.185 75.8274 126.798 75.4689 127.515 75.1688C128.24 74.8687 129.073 74.6353 130.015 74.4686C130.966 74.2935 132.045 74.206 133.254 74.206C134.129 74.206 135.009 74.256 135.892 74.356C136.776 74.4477 137.635 74.5811 138.468 74.7562C139.31 74.9312 140.119 75.1438 140.894 75.3939C141.669 75.6356 142.39 75.9066 143.057 76.2067L141.319 79.4077C140.769 79.166 140.177 78.9451 139.544 78.745C138.91 78.5366 138.247 78.3574 137.555 78.2073C136.864 78.0573 136.147 77.9406 135.405 77.8572C134.671 77.7655 133.921 77.7196 133.154 77.7196C132.062 77.7196 131.162 77.7988 130.453 77.9572C129.753 78.1156 129.194 78.3198 128.778 78.5699C128.361 78.8117 128.069 79.0868 127.902 79.3952C127.744 79.6953 127.665 79.9954 127.665 80.2955C127.665 80.879 127.927 81.3583 128.452 81.7335C128.978 82.1003 129.778 82.2836 130.853 82.2836C131.287 82.2836 131.783 82.2545 132.341 82.1961C132.908 82.1294 133.5 82.0586 134.117 81.9836C134.742 81.9085 135.376 81.8418 136.017 81.7835C136.668 81.7168 137.297 81.6835 137.906 81.6835C139.056 81.6835 140.073 81.8127 140.957 82.0711C141.849 82.3295 142.595 82.7005 143.195 83.1839C143.795 83.6591 144.249 84.2385 144.558 84.922C144.866 85.5972 145.02 86.3558 145.02 87.1978C145.02 88.3231 144.758 89.3276 144.233 90.2113C143.716 91.0865 142.974 91.8285 142.007 92.437C141.048 93.0372 139.89 93.4957 138.531 93.8124C137.172 94.1209 135.659 94.2751 133.992 94.2751C132.891 94.2751 131.816 94.2042 130.766 94.0625C129.715 93.9291 128.707 93.7374 127.74 93.4873C126.781 93.2289 125.864 92.9246 124.989 92.5745C124.122 92.2161 123.317 91.8243 122.576 91.3991L124.689 88.1856ZM148.034 86.6601C148.034 85.5764 148.23 84.5677 148.622 83.6341C149.022 82.6921 149.601 81.8794 150.36 81.1958C151.127 80.5039 152.06 79.9621 153.161 79.5703C154.269 79.1785 155.532 78.9826 156.949 78.9826C157.566 78.9826 158.187 79.0201 158.812 79.0951C159.438 79.1701 160.038 79.2785 160.613 79.4202C161.197 79.5536 161.743 79.7161 162.251 79.9079C162.76 80.0913 163.201 80.2955 163.576 80.5206L161.863 83.309C161.055 82.9339 160.288 82.6588 159.563 82.4837C158.846 82.3087 158.116 82.2211 157.374 82.2211C156.524 82.2211 155.761 82.3337 155.086 82.5587C154.411 82.7755 153.836 83.0839 153.361 83.484C152.894 83.8758 152.535 84.3427 152.285 84.8845C152.044 85.418 151.923 86.0015 151.923 86.6351C151.923 87.2686 152.052 87.8563 152.31 88.3982C152.577 88.9317 152.948 89.3943 153.423 89.7861C153.907 90.1696 154.486 90.4738 155.161 90.6989C155.845 90.9157 156.603 91.024 157.437 91.024C158.354 91.024 159.217 90.8948 160.025 90.6364C160.842 90.378 161.601 90.032 162.301 89.5986L164.014 92.387C163.572 92.6537 163.093 92.9038 162.576 93.1372C162.059 93.3623 161.505 93.5582 160.913 93.7249C160.33 93.8916 159.713 94.0208 159.063 94.1125C158.421 94.2126 157.754 94.2626 157.062 94.2626C155.653 94.2626 154.39 94.0709 153.273 93.6874C152.156 93.3039 151.21 92.7746 150.435 92.0994C149.659 91.4158 149.063 90.6114 148.647 89.6861C148.238 88.7608 148.034 87.7521 148.034 86.6601ZM168.003 73.2682H171.704V80.3705C172.479 79.9454 173.342 79.6078 174.293 79.3577C175.251 79.1076 176.256 78.9826 177.306 78.9826C178.523 78.9826 179.615 79.1618 180.582 79.5202C181.557 79.8787 182.383 80.3955 183.058 81.0708C183.733 81.7376 184.25 82.5504 184.608 83.5091C184.975 84.4677 185.159 85.5472 185.159 86.7476V94H181.47V86.8977C181.47 86.1974 181.357 85.5597 181.132 84.9845C180.907 84.401 180.578 83.9008 180.144 83.484C179.711 83.0672 179.182 82.7463 178.556 82.5212C177.94 82.2878 177.239 82.1711 176.456 82.1711C175.514 82.1711 174.638 82.3212 173.83 82.6213C173.021 82.9214 172.313 83.3007 171.704 83.7591V94H168.003V73.2682ZM188.422 86.6226C188.422 85.5639 188.635 84.5719 189.06 83.6466C189.493 82.7213 190.106 81.9127 190.898 81.2208C191.698 80.5289 192.661 79.9829 193.786 79.5828C194.92 79.1826 196.191 78.9826 197.6 78.9826C199.009 78.9826 200.276 79.1826 201.401 79.5828C202.535 79.9829 203.498 80.5289 204.29 81.2208C205.09 81.9127 205.703 82.7213 206.128 83.6466C206.561 84.5719 206.778 85.5639 206.778 86.6226C206.778 87.6813 206.561 88.6732 206.128 89.5986C205.703 90.5239 205.09 91.3325 204.29 92.0244C203.498 92.7162 202.535 93.2623 201.401 93.6624C200.276 94.0625 199.009 94.2626 197.6 94.2626C196.191 94.2626 194.92 94.0625 193.786 93.6624C192.661 93.2623 191.698 92.7162 190.898 92.0244C190.106 91.3325 189.493 90.5239 189.06 89.5986C188.635 88.6732 188.422 87.6813 188.422 86.6226ZM192.311 86.6226C192.311 87.2144 192.428 87.7771 192.661 88.3106C192.903 88.8358 193.249 89.3026 193.699 89.7111C194.157 90.1112 194.712 90.4322 195.362 90.6739C196.02 90.9073 196.767 91.024 197.6 91.024C198.434 91.024 199.176 90.9073 199.826 90.6739C200.484 90.4322 201.039 90.1112 201.489 89.7111C201.947 89.3026 202.293 88.8358 202.527 88.3106C202.769 87.7771 202.889 87.2144 202.889 86.6226C202.889 86.0307 202.769 85.468 202.527 84.9345C202.293 84.401 201.947 83.9342 201.489 83.5341C201.039 83.1256 200.484 82.8047 199.826 82.5712C199.176 82.3295 198.434 82.2086 197.6 82.2086C196.767 82.2086 196.02 82.3295 195.362 82.5712C194.712 82.8047 194.157 83.1256 193.699 83.5341C193.249 83.9342 192.903 84.401 192.661 84.9345C192.428 85.468 192.311 86.0307 192.311 86.6226ZM209.629 86.6226C209.629 85.5639 209.842 84.5719 210.267 83.6466C210.7 82.7213 211.313 81.9127 212.105 81.2208C212.905 80.5289 213.868 79.9829 214.993 79.5828C216.127 79.1826 217.398 78.9826 218.807 78.9826C220.216 78.9826 221.483 79.1826 222.608 79.5828C223.742 79.9829 224.705 80.5289 225.497 81.2208C226.297 81.9127 226.91 82.7213 227.335 83.6466C227.768 84.5719 227.985 85.5639 227.985 86.6226C227.985 87.6813 227.768 88.6732 227.335 89.5986C226.91 90.5239 226.297 91.3325 225.497 92.0244C224.705 92.7162 223.742 93.2623 222.608 93.6624C221.483 94.0625 220.216 94.2626 218.807 94.2626C217.398 94.2626 216.127 94.0625 214.993 93.6624C213.868 93.2623 212.905 92.7162 212.105 92.0244C211.313 91.3325 210.7 90.5239 210.267 89.5986C209.842 88.6732 209.629 87.6813 209.629 86.6226ZM213.518 86.6226C213.518 87.2144 213.635 87.7771 213.868 88.3106C214.11 88.8358 214.456 89.3026 214.906 89.7111C215.364 90.1112 215.919 90.4322 216.569 90.6739C217.227 90.9073 217.974 91.024 218.807 91.024C219.641 91.024 220.383 90.9073 221.033 90.6739C221.691 90.4322 222.246 90.1112 222.696 89.7111C223.154 89.3026 223.5 88.8358 223.734 88.3106C223.976 87.7771 224.096 87.2144 224.096 86.6226C224.096 86.0307 223.976 85.468 223.734 84.9345C223.5 84.401 223.154 83.9342 222.696 83.5341C222.246 83.1256 221.691 82.8047 221.033 82.5712C220.383 82.3295 219.641 82.2086 218.807 82.2086C217.974 82.2086 217.227 82.3295 216.569 82.5712C215.919 82.8047 215.364 83.1256 214.906 83.5341C214.456 83.9342 214.11 84.401 213.868 84.9345C213.635 85.468 213.518 86.0307 213.518 86.6226ZM231.824 73.2557H235.525V94H231.824V73.2557Z" fill="#03082D"/>
</svg>
